<svg width="1440" height="1929" viewBox="0 0 1440 1929" fill="none" xmlns="http://www.w3.org/2000/svg">
<rect width="1440" height="1929" fill="#3D1255"/>
<path d="M-71 1910C-113 1740 -143 1964.5 -143 1964.5L1680.5 1948.5C1680.5 1948.5 1445 1442 1149 1463C853 1484 854.563 2008.97 607.5 1754C360.437 1499.03 -29 2080 -71 1910Z" fill="#260339" fill-opacity="0.45"/>
<path d="M88.5001 1079.5C72.2416 1081.82 10.8985 1126.73 -13.4999 1087C-51.3823 1025.32 -3.3377 1296.6 -0.499844 1397.5C0.460716 1431.65 32.1102 1464.75 65.0001 1455.5C107.551 1443.53 127.773 1385.7 168 1366.5C188.176 1356.87 213 1327 194 1315.5C175 1304 202.388 1278.13 201 1254C200.291 1241.67 158.915 1249.09 145.5 1203C138.812 1180.02 175.313 1168.79 168 1146C157.234 1112.45 134.131 1073 88.5001 1079.5Z" fill="#260339" fill-opacity="0.25"/>
<g clip-path="url(#clip0)">
<rect x="28.9937" y="1394.5" width="58.6988" height="58.6988" transform="rotate(-45 28.9937 1394.5)" fill="#7B9F35"/>
<path d="M29.5869 1394.68C29.5869 1394.68 70.6761 1353 70.6761 1353.59V1394.68H29.5869Z" fill="#A5C663"/>
<path d="M29.5869 1394.68H70.6761V1435.77L29.5869 1394.68Z" fill="#567714"/>
<path d="M111.178 1394.68L70.676 1353.59V1394.68H111.178Z" fill="#354F00"/>
<path d="M70.676 1394.68H111.178L70.676 1435.18V1394.68Z" fill="#7B9F35"/>
</g>
<g clip-path="url(#clip1)">
<rect x="143.996" y="1273.5" width="36.0679" height="36.0679" transform="rotate(-45 143.996 1273.5)" fill="#7B9F35"/>
<path d="M144.361 1273.61C144.361 1273.61 169.608 1248 169.608 1248.36V1273.61H144.361Z" fill="#A5C663"/>
<path d="M144.361 1273.61H169.608V1298.86L144.361 1273.61Z" fill="#567714"/>
<path d="M194.495 1273.61L169.608 1248.36V1273.61H194.495Z" fill="#354F00"/>
<path d="M169.608 1273.61H194.495L169.608 1298.5V1273.61Z" fill="#7B9F35"/>
</g>
<g clip-path="url(#clip2)">
<rect x="79.9922" y="1334.5" width="71.4287" height="71.4287" transform="rotate(-45 79.9922 1334.5)" fill="#7B9F35"/>
<path d="M80.7141 1334.71C80.7141 1334.71 130.714 1284 130.714 1284.71V1334.71H80.7141Z" fill="#A5C663"/>
<path d="M80.7141 1334.71H130.714V1384.71L80.7141 1334.71Z" fill="#567714"/>
<path d="M180 1334.71L130.714 1284.71V1334.71H180Z" fill="#354F00"/>
<path d="M130.714 1334.71H180L130.714 1384V1334.71Z" fill="#7B9F35"/>
</g>
<g clip-path="url(#clip3)">
<rect x="28.9934" y="1269.5" width="61.5277" height="61.5277" transform="rotate(-45 28.9934 1269.5)" fill="#7B9F35"/>
<path d="M29.6152 1269.68C29.6152 1269.68 72.6846 1226 72.6846 1226.62V1269.68H29.6152Z" fill="#A5C663"/>
<path d="M29.6152 1269.68H72.6846V1312.75L29.6152 1269.68Z" fill="#567714"/>
<path d="M115.139 1269.68L72.6846 1226.62V1269.68H115.139Z" fill="#354F00"/>
<path d="M72.6846 1269.68H115.139L72.6846 1312.14V1269.68Z" fill="#7B9F35"/>
</g>
<g clip-path="url(#clip4)">
<rect x="109.997" y="1228.5" width="27.5814" height="27.5814" transform="rotate(-45 109.997 1228.5)" fill="#7B9F35"/>
<path d="M110.276 1228.58C110.276 1228.58 129.583 1209 129.583 1209.28V1228.58H110.276Z" fill="#A5C663"/>
<path d="M110.276 1228.58H129.583V1247.89L110.276 1228.58Z" fill="#567714"/>
<path d="M148.614 1228.58L129.583 1209.28V1228.58H148.614Z" fill="#354F00"/>
<path d="M129.583 1228.58H148.614L129.583 1247.61V1228.58Z" fill="#7B9F35"/>
</g>
<g clip-path="url(#clip5)">
<rect x="27.9902" y="1162" width="90.5235" height="90.5235" transform="rotate(-45 27.9902 1162)" fill="#7B9F35"/>
<path d="M28.905 1162.27C28.905 1162.27 92.2714 1098 92.2714 1098.91V1162.27H28.905Z" fill="#A5C663"/>
<path d="M28.905 1162.27H92.2714V1225.64L28.905 1162.27Z" fill="#567714"/>
<path d="M154.733 1162.27L92.2715 1098.91V1162.27H154.733Z" fill="#354F00"/>
<path d="M92.2715 1162.27H154.733L92.2715 1224.73V1162.27Z" fill="#7B9F35"/>
</g>
<path d="M1227 553C1299.02 621.873 1470.96 774.877 1482 774C1529.19 770.253 1477.31 433.253 1459.5 404C1440.94 373.515 1388.76 465.521 1373 433.5C1358.08 403.185 1356.75 289.856 1312.5 340C1294.05 360.909 1267.45 392.75 1239 404C1204.68 417.572 1292.18 447.779 1288.5 484.5C1284.91 520.271 1201.02 528.153 1227 553Z" fill="#260339" fill-opacity="0.25"/>
<g clip-path="url(#clip6)">
<rect x="1248.99" y="541.5" width="58.6988" height="58.6988" transform="rotate(-45 1248.99 541.5)" fill="#7B9F35"/>
<path d="M1249.59 541.676C1249.59 541.676 1290.68 500 1290.68 500.587V541.676H1249.59Z" fill="#A5C663"/>
<path d="M1249.59 541.676H1290.68V582.765L1249.59 541.676Z" fill="#567714"/>
<path d="M1331.18 541.676L1290.68 500.587V541.676H1331.18Z" fill="#354F00"/>
<path d="M1290.68 541.676H1331.18L1290.68 582.178V541.676Z" fill="#7B9F35"/>
</g>
<g clip-path="url(#clip7)">
<rect x="1322" y="494.5" width="36.0679" height="36.0679" transform="rotate(-45 1322 494.5)" fill="#7B9F35"/>
<path d="M1322.36 494.608C1322.36 494.608 1347.61 469 1347.61 469.361V494.608H1322.36Z" fill="#A5C663"/>
<path d="M1322.36 494.608H1347.61V519.856L1322.36 494.608Z" fill="#567714"/>
<path d="M1372.5 494.608L1347.61 469.361V494.608H1372.5Z" fill="#354F00"/>
<path d="M1347.61 494.608H1372.5L1347.61 519.495V494.608Z" fill="#7B9F35"/>
</g>
<g clip-path="url(#clip8)">
<rect x="1258.99" y="418.5" width="71.4287" height="71.4287" transform="rotate(-45 1258.99 418.5)" fill="#7B9F35"/>
<path d="M1259.71 418.714C1259.71 418.714 1309.71 368 1309.71 368.714V418.714H1259.71Z" fill="#A5C663"/>
<path d="M1259.71 418.714H1309.71V468.714L1259.71 418.714Z" fill="#567714"/>
<path d="M1359 418.714L1309.71 368.714V418.714H1359Z" fill="#354F00"/>
<path d="M1309.71 418.714H1359L1309.71 468V418.714Z" fill="#7B9F35"/>
</g>
<g clip-path="url(#clip9)">
<rect x="1359.99" y="549.5" width="61.5277" height="61.5277" transform="rotate(-45 1359.99 549.5)" fill="#7B9F35"/>
<path d="M1360.62 549.685C1360.62 549.685 1403.68 506 1403.68 506.615V549.685H1360.62Z" fill="#A5C663"/>
<path d="M1360.62 549.685H1403.68V592.754L1360.62 549.685Z" fill="#567714"/>
<path d="M1446.14 549.685L1403.68 506.615V549.685H1446.14Z" fill="#354F00"/>
<path d="M1403.68 549.685H1446.14L1403.68 592.139V549.685Z" fill="#7B9F35"/>
</g>
<g clip-path="url(#clip10)">
<rect x="1389" y="449.5" width="27.5814" height="27.5814" transform="rotate(-45 1389 449.5)" fill="#7B9F35"/>
<path d="M1389.28 449.583C1389.28 449.583 1408.58 430 1408.58 430.276V449.583H1389.28Z" fill="#A5C663"/>
<path d="M1389.28 449.583H1408.58V468.89L1389.28 449.583Z" fill="#567714"/>
<path d="M1427.61 449.583L1408.58 430.276V449.583H1427.61Z" fill="#354F00"/>
<path d="M1408.58 449.583H1427.61L1408.58 468.614V449.583Z" fill="#7B9F35"/>
</g>
<g clip-path="url(#clip11)">
<rect x="1358.99" y="646" width="90.5235" height="90.5235" transform="rotate(-45 1358.99 646)" fill="#7B9F35"/>
<path d="M1359.91 646.272C1359.91 646.272 1423.27 582 1423.27 582.905V646.272H1359.91Z" fill="#A5C663"/>
<path d="M1359.91 646.272H1423.27V709.638L1359.91 646.272Z" fill="#567714"/>
<path d="M1485.73 646.272L1423.27 582.905V646.272H1485.73Z" fill="#354F00"/>
<path d="M1423.27 646.272H1485.73L1423.27 708.733V646.272Z" fill="#7B9F35"/>
</g>
<defs>
<clipPath id="clip0">
<rect x="29" y="1353" width="83" height="83" fill="white"/>
</clipPath>
<clipPath id="clip1">
<rect x="144" y="1248" width="51" height="51" fill="white"/>
</clipPath>
<clipPath id="clip2">
<rect x="80" y="1284" width="101" height="101" fill="white"/>
</clipPath>
<clipPath id="clip3">
<rect x="29" y="1226" width="87" height="87" fill="white"/>
</clipPath>
<clipPath id="clip4">
<rect x="110" y="1209" width="39" height="39" fill="white"/>
</clipPath>
<clipPath id="clip5">
<rect x="28" y="1098" width="128" height="128" fill="white"/>
</clipPath>
<clipPath id="clip6">
<rect x="1249" y="500" width="83" height="83" fill="white"/>
</clipPath>
<clipPath id="clip7">
<rect x="1322" y="469" width="51" height="51" fill="white"/>
</clipPath>
<clipPath id="clip8">
<rect x="1259" y="368" width="101" height="101" fill="white"/>
</clipPath>
<clipPath id="clip9">
<rect x="1360" y="506" width="87" height="87" fill="white"/>
</clipPath>
<clipPath id="clip10">
<rect x="1389" y="430" width="39" height="39" fill="white"/>
</clipPath>
<clipPath id="clip11">
<rect x="1359" y="582" width="128" height="128" fill="white"/>
</clipPath>
</defs>
</svg>
