<svg width="40" height="32" viewBox="0 0 40 32" fill="none" xmlns="http://www.w3.org/2000/svg">
<path d="M22.8571 29.1429V26.2857H37.1429V29.1429H22.8571ZM14.2857 17.7143V14.8571H37.1429V17.7143H14.2857ZM28.5714 6.28571V3.42857H37.1429V6.28571H28.5714ZM40 24.8571C40 24.0759 39.3527 23.4286 38.5714 23.4286H1.42857C0.647321 23.4286 0 24.0759 0 24.8571V30.5714C0 31.3527 0.647321 32 1.42857 32H38.5714C39.3527 32 40 31.3527 40 30.5714V24.8571ZM40 13.4286C40 12.6473 39.3527 12 38.5714 12H1.42857C0.647321 12 0 12.6473 0 13.4286V19.1429C0 19.9241 0.647321 20.5714 1.42857 20.5714H38.5714C39.3527 20.5714 40 19.9241 40 19.1429V13.4286ZM40 2C40 1.21875 39.3527 0.571427 38.5714 0.571427H1.42857C0.647321 0.571427 0 1.21875 0 2V7.71429C0 8.49554 0.647321 9.14286 1.42857 9.14286H38.5714C39.3527 9.14286 40 8.49554 40 7.71429V2Z" fill="#D4C26A"/>
</svg>
