<svg width="218" height="448" viewBox="0 0 218 448" fill="none" xmlns="http://www.w3.org/2000/svg">
<path d="M5.00016 226C77.0194 294.873 248.961 447.877 260 447C307.189 443.253 255.311 106.253 237.5 77C218.939 46.5152 166.764 138.521 151 106.5C136.076 76.1853 134.754 -37.1439 90.5002 13C72.0475 33.9089 45.4476 65.7504 17.0002 77C-17.3189 90.5715 70.182 120.779 66.5002 157.5C62.9135 193.271 -20.982 201.153 5.00016 226Z" fill="#260339" fill-opacity="0.25"/>
<g clip-path="url(#clip0)">
<rect x="26.9937" y="214.5" width="58.6988" height="58.6988" transform="rotate(-45 26.9937 214.5)" fill="#7B9F35"/>
<path d="M27.5869 214.676C27.5869 214.676 68.6761 173 68.6761 173.587V214.676H27.5869Z" fill="#A5C663"/>
<path d="M27.5869 214.676H68.6761V255.765L27.5869 214.676Z" fill="#567714"/>
<path d="M109.178 214.676L68.676 173.587V214.676H109.178Z" fill="#354F00"/>
<path d="M68.676 214.676H109.178L68.676 255.178V214.676Z" fill="#7B9F35"/>
</g>
<g clip-path="url(#clip1)">
<rect x="99.9961" y="167.5" width="36.0679" height="36.0679" transform="rotate(-45 99.9961 167.5)" fill="#7B9F35"/>
<path d="M100.361 167.608C100.361 167.608 125.608 142 125.608 142.361V167.608H100.361Z" fill="#A5C663"/>
<path d="M100.361 167.608H125.608V192.856L100.361 167.608Z" fill="#567714"/>
<path d="M150.495 167.608L125.608 142.361V167.608H150.495Z" fill="#354F00"/>
<path d="M125.608 167.608H150.495L125.608 192.495V167.608Z" fill="#7B9F35"/>
</g>
<g clip-path="url(#clip2)">
<rect x="36.9922" y="91.5" width="71.4287" height="71.4287" transform="rotate(-45 36.9922 91.5)" fill="#7B9F35"/>
<path d="M37.7141 91.7144C37.7141 91.7144 87.7142 41 87.7142 41.7143V91.7144H37.7141Z" fill="#A5C663"/>
<path d="M37.7141 91.7144H87.7142V141.714L37.7141 91.7144Z" fill="#567714"/>
<path d="M137 91.7144L87.7141 41.7143V91.7144H137Z" fill="#354F00"/>
<path d="M87.7141 91.7144H137L87.7141 141V91.7144Z" fill="#7B9F35"/>
</g>
<g clip-path="url(#clip3)">
<rect x="137.993" y="222.5" width="61.5277" height="61.5277" transform="rotate(-45 137.993 222.5)" fill="#7B9F35"/>
<path d="M138.615 222.685C138.615 222.685 181.685 179 181.685 179.615V222.685H138.615Z" fill="#A5C663"/>
<path d="M138.615 222.685H181.685V265.754L138.615 222.685Z" fill="#567714"/>
<path d="M224.139 222.685L181.685 179.615V222.685H224.139Z" fill="#354F00"/>
<path d="M181.685 222.685H224.139L181.685 265.139V222.685Z" fill="#7B9F35"/>
</g>
<g clip-path="url(#clip4)">
<rect x="166.997" y="122.5" width="27.5814" height="27.5814" transform="rotate(-45 166.997 122.5)" fill="#7B9F35"/>
<path d="M167.276 122.583C167.276 122.583 186.583 103 186.583 103.276V122.583H167.276Z" fill="#A5C663"/>
<path d="M167.276 122.583H186.583V141.89L167.276 122.583Z" fill="#567714"/>
<path d="M205.614 122.583L186.583 103.276V122.583H205.614Z" fill="#354F00"/>
<path d="M186.583 122.583H205.614L186.583 141.614V122.583Z" fill="#7B9F35"/>
</g>
<g clip-path="url(#clip5)">
<rect x="136.99" y="319" width="90.5235" height="90.5235" transform="rotate(-45 136.99 319)" fill="#7B9F35"/>
<path d="M137.905 319.272C137.905 319.272 201.271 255 201.271 255.905V319.272H137.905Z" fill="#A5C663"/>
<path d="M137.905 319.272H201.271V382.638L137.905 319.272Z" fill="#567714"/>
<path d="M263.733 319.272L201.271 255.905V319.272H263.733Z" fill="#354F00"/>
<path d="M201.271 319.272H263.733L201.271 381.733V319.272Z" fill="#7B9F35"/>
</g>
<defs>
<clipPath id="clip0">
<rect x="27" y="173" width="83" height="83" fill="white"/>
</clipPath>
<clipPath id="clip1">
<rect x="100" y="142" width="51" height="51" fill="white"/>
</clipPath>
<clipPath id="clip2">
<rect x="37" y="41" width="101" height="101" fill="white"/>
</clipPath>
<clipPath id="clip3">
<rect x="138" y="179" width="87" height="87" fill="white"/>
</clipPath>
<clipPath id="clip4">
<rect x="167" y="103" width="39" height="39" fill="white"/>
</clipPath>
<clipPath id="clip5">
<rect x="137" y="255" width="128" height="128" fill="white"/>
</clipPath>
</defs>
</svg>
