<svg width="202" height="381" viewBox="0 0 202 381" fill="none" xmlns="http://www.w3.org/2000/svg">
<path d="M88.5001 2.50001C72.2416 4.81705 10.8985 49.7265 -13.4999 9.99999C-51.3823 -51.6818 -3.3377 219.599 -0.499844 320.5C0.460716 354.653 32.1102 387.752 65.0001 378.5C107.551 366.531 127.773 308.699 168 289.5C188.176 279.871 213 250 194 238.5C175 227 202.388 201.133 201 177C200.291 164.667 158.915 172.089 145.5 126C138.812 103.022 175.313 91.7866 168 69C157.234 35.4526 134.131 -4.00294 88.5001 2.50001Z" fill="#260339" fill-opacity="0.25"/>
<g clip-path="url(#clip0)">
<rect x="28.9937" y="317.5" width="58.6988" height="58.6988" transform="rotate(-45 28.9937 317.5)" fill="#7B9F35"/>
<path d="M29.5869 317.676C29.5869 317.676 70.6761 276 70.6761 276.587V317.676H29.5869Z" fill="#A5C663"/>
<path d="M29.5869 317.676H70.6761V358.765L29.5869 317.676Z" fill="#567714"/>
<path d="M111.178 317.676L70.676 276.587V317.676H111.178Z" fill="#354F00"/>
<path d="M70.676 317.676H111.178L70.676 358.178V317.676Z" fill="#7B9F35"/>
</g>
<g clip-path="url(#clip1)">
<rect x="143.996" y="196.5" width="36.0679" height="36.0679" transform="rotate(-45 143.996 196.5)" fill="#7B9F35"/>
<path d="M144.361 196.608C144.361 196.608 169.608 171 169.608 171.361V196.608H144.361Z" fill="#A5C663"/>
<path d="M144.361 196.608H169.608V221.856L144.361 196.608Z" fill="#567714"/>
<path d="M194.495 196.608L169.608 171.361V196.608H194.495Z" fill="#354F00"/>
<path d="M169.608 196.608H194.495L169.608 221.495V196.608Z" fill="#7B9F35"/>
</g>
<g clip-path="url(#clip2)">
<rect x="79.9922" y="257.5" width="71.4287" height="71.4287" transform="rotate(-45 79.9922 257.5)" fill="#7B9F35"/>
<path d="M80.7141 257.714C80.7141 257.714 130.714 207 130.714 207.714V257.714H80.7141Z" fill="#A5C663"/>
<path d="M80.7141 257.714H130.714V307.714L80.7141 257.714Z" fill="#567714"/>
<path d="M180 257.714L130.714 207.714V257.714H180Z" fill="#354F00"/>
<path d="M130.714 257.714H180L130.714 307V257.714Z" fill="#7B9F35"/>
</g>
<g clip-path="url(#clip3)">
<rect x="28.9934" y="192.5" width="61.5277" height="61.5277" transform="rotate(-45 28.9934 192.5)" fill="#7B9F35"/>
<path d="M29.6152 192.685C29.6152 192.685 72.6846 149 72.6846 149.615V192.685H29.6152Z" fill="#A5C663"/>
<path d="M29.6152 192.685H72.6846V235.754L29.6152 192.685Z" fill="#567714"/>
<path d="M115.139 192.685L72.6846 149.615V192.685H115.139Z" fill="#354F00"/>
<path d="M72.6846 192.685H115.139L72.6846 235.139V192.685Z" fill="#7B9F35"/>
</g>
<g clip-path="url(#clip4)">
<rect x="109.997" y="151.5" width="27.5814" height="27.5814" transform="rotate(-45 109.997 151.5)" fill="#7B9F35"/>
<path d="M110.276 151.583C110.276 151.583 129.583 132 129.583 132.276V151.583H110.276Z" fill="#A5C663"/>
<path d="M110.276 151.583H129.583V170.89L110.276 151.583Z" fill="#567714"/>
<path d="M148.614 151.583L129.583 132.276V151.583H148.614Z" fill="#354F00"/>
<path d="M129.583 151.583H148.614L129.583 170.614V151.583Z" fill="#7B9F35"/>
</g>
<g clip-path="url(#clip5)">
<rect x="27.9902" y="85" width="90.5235" height="90.5235" transform="rotate(-45 27.9902 85)" fill="#7B9F35"/>
<path d="M28.905 85.2716C28.905 85.2716 92.2714 21 92.2714 21.9052V85.2716H28.905Z" fill="#A5C663"/>
<path d="M28.905 85.2716H92.2714V148.638L28.905 85.2716Z" fill="#567714"/>
<path d="M154.733 85.2716L92.2715 21.9052V85.2716H154.733Z" fill="#354F00"/>
<path d="M92.2715 85.2716H154.733L92.2715 147.733V85.2716Z" fill="#7B9F35"/>
</g>
<defs>
<clipPath id="clip0">
<rect x="29" y="276" width="83" height="83" fill="white"/>
</clipPath>
<clipPath id="clip1">
<rect x="144" y="171" width="51" height="51" fill="white"/>
</clipPath>
<clipPath id="clip2">
<rect x="80" y="207" width="101" height="101" fill="white"/>
</clipPath>
<clipPath id="clip3">
<rect x="29" y="149" width="87" height="87" fill="white"/>
</clipPath>
<clipPath id="clip4">
<rect x="110" y="132" width="39" height="39" fill="white"/>
</clipPath>
<clipPath id="clip5">
<rect x="28" y="21" width="128" height="128" fill="white"/>
</clipPath>
</defs>
</svg>
