<svg width="40" height="41" viewBox="0 0 40 41" fill="none" xmlns="http://www.w3.org/2000/svg">
<path d="M14.2857 6.42857V3.57143H25.7143V6.42857H14.2857ZM40 20.7143H25V24.2857C25 25.067 24.3527 25.7143 23.5714 25.7143H16.4286C15.6473 25.7143 15 25.067 15 24.2857V20.7143H0V31.4286C0 33.3929 1.60714 35 3.57143 35H36.4286C38.3929 35 40 33.3929 40 31.4286V20.7143ZM22.8571 20.7143H17.1429V23.5714H22.8571V20.7143ZM40 10C40 8.03571 38.3929 6.42857 36.4286 6.42857H28.5714V2.85714C28.5714 1.67411 27.6116 0.714283 26.4286 0.714283H13.5714C12.3884 0.714283 11.4286 1.67411 11.4286 2.85714V6.42857H3.57143C1.60714 6.42857 0 8.03571 0 10V18.5714H40V10Z" fill="#D4C26A"/>
</svg>
