<svg width="30" height="35" viewBox="0 0 30 35" fill="none" xmlns="http://www.w3.org/2000/svg">
<path d="M29.2941 28.942C29.2941 23.0714 27.8432 16.2857 21.995 16.2857C20.1869 18.0491 17.7316 19.1429 15.0084 19.1429C12.2852 19.1429 9.8298 18.0491 8.02176 16.2857C2.17355 16.2857 0.722656 23.0714 0.722656 28.942C0.722656 32.2009 2.86551 34.8571 5.47712 34.8571H24.5396C27.1512 34.8571 29.2941 32.2009 29.2941 28.942ZM23.5798 9.14286C23.5798 4.41071 19.7405 0.571427 15.0084 0.571427C10.2762 0.571427 6.43694 4.41071 6.43694 9.14286C6.43694 13.875 10.2762 17.7143 15.0084 17.7143C19.7405 17.7143 23.5798 13.875 23.5798 9.14286Z" fill="#D4C26A"/>
</svg>
